<svg width="21" height="20" viewBox="0 0 21 20" fill="none" xmlns="http://www.w3.org/2000/svg">
<g id="Icon">
<g id="Union">
<path d="M5.38867 3.88103C5.70292 3.7956 6.03358 3.75 6.37488 3.75H15.1249C15.4662 3.75 15.7968 3.7956 16.1111 3.88103C15.7005 3.06211 14.8533 2.5 13.8749 2.5H7.62488C6.64642 2.5 5.79925 3.06211 5.38867 3.88103Z" fill="#999999"/>
<path d="M2.625 10C2.625 8.61929 3.74429 7.5 5.125 7.5H16.375C17.7557 7.5 18.875 8.61929 18.875 10V15C18.875 16.3807 17.7557 17.5 16.375 17.5H5.125C3.74429 17.5 2.625 16.3807 2.625 15V10Z" fill="#999999"/>
<path d="M5.12488 6.25C4.78358 6.25 4.45292 6.2956 4.13867 6.38103C4.54925 5.56211 5.39642 5 6.37488 5H15.1249C16.1033 5 16.9505 5.56211 17.3611 6.38103C17.0468 6.2956 16.7162 6.25 16.3749 6.25H5.12488Z" fill="#999999"/>
</g>
</g>
</svg>
